# xmcd CD database file
#
# Track frame offsets:
#	150
#	45913
#	91220
#	121959
#	201530
#
# Disc length: 3162 seconds
#
# Revision: 1
# Processed by: cddbd v1.5.2PL0 Copyright (c) Steve Scherf et al.
# Submitted via: CDex 1.51
#
DISCID=3b0c5805
DTITLE=Belmondo and Yusef Lateef - Influence - CD1
DYEAR=2005
DGENRE=Jazz
TTITLE0=Shafaa
TTITLE1=Si Tout Ceci n'Est Qu'un Pauvre Rêve
TTITLE2=Après Le Jeu
TTITLE3=Influence
TTITLE4=Orgatique
EXTD=YEAR: 2005
EXTT0=
EXTT1=
EXTT2=
EXTT3=
EXTT4=
PLAYORDER=
